<svg width="732" height="210" viewBox="0 0 732 210" fill="none" xmlns="http://www.w3.org/2000/svg">
<rect width="732" height="210" fill="white"/>
<rect x="267" y="72" width="199" height="66" rx="33" fill="black" fill-opacity="0.702"/>
<rect x="267.5" y="72.5" width="198" height="65" rx="32.5" stroke="white" stroke-opacity="0.3"/>
<rect x="282.5" y="86.5" width="124" height="36.7907" rx="18.3953" stroke="white" stroke-opacity="0.3"/>
<circle cx="296.898" cy="104.532" r="6.90407" fill="#FF0000">
  <animate attributeName="opacity" values="1;0;1;1" keyTimes="0;0.4;0.8;1" dur="1s" repeatCount="indefinite"/>
</circle>
<path d="M327.63 98.9974V110.634H325.169V101.333H325.101L322.436 103.003V100.821L325.317 98.9974H327.63ZM334.958 110.889C333.98 110.886 333.14 110.645 332.435 110.168C331.734 109.691 331.194 108.999 330.816 108.094C330.441 107.189 330.255 106.1 330.259 104.827C330.259 103.558 330.446 102.477 330.821 101.583C331.2 100.689 331.74 100.009 332.441 99.5428C333.145 99.0731 333.984 98.8383 334.958 98.8383C335.931 98.8383 336.768 99.0731 337.469 99.5428C338.174 100.013 338.715 100.694 339.094 101.588C339.473 102.478 339.66 103.558 339.657 104.827C339.657 106.103 339.467 107.194 339.088 108.1C338.713 109.005 338.176 109.696 337.475 110.174C336.774 110.651 335.935 110.889 334.958 110.889ZM334.958 108.85C335.624 108.85 336.157 108.514 336.554 107.844C336.952 107.174 337.149 106.168 337.145 104.827C337.145 103.944 337.054 103.209 336.872 102.622C336.694 102.035 336.441 101.594 336.111 101.299C335.785 101.003 335.401 100.855 334.958 100.855C334.295 100.855 333.765 101.187 333.367 101.85C332.969 102.513 332.768 103.505 332.765 104.827C332.765 105.721 332.854 106.467 333.032 107.066C333.213 107.66 333.469 108.107 333.799 108.406C334.128 108.702 334.515 108.85 334.958 108.85ZM343.854 105.588V110.634H341.434V98.9974H343.786V103.446H343.888C344.085 102.931 344.403 102.528 344.843 102.236C345.282 101.941 345.833 101.793 346.496 101.793C347.102 101.793 347.631 101.925 348.081 102.191C348.536 102.452 348.888 102.829 349.138 103.321C349.392 103.81 349.517 104.395 349.513 105.077V110.634H347.093V105.509C347.096 104.971 346.96 104.552 346.684 104.253C346.411 103.954 346.028 103.804 345.536 103.804C345.206 103.804 344.915 103.874 344.661 104.014C344.411 104.155 344.214 104.359 344.07 104.628C343.93 104.893 343.858 105.213 343.854 105.588ZM354.922 108.588V106.651L359.78 98.9974H361.451V101.679H360.462L357.399 106.526V106.617H364.303V108.588H354.922ZM360.507 110.634V107.997L360.553 107.139V98.9974H362.86V110.634H360.507ZM370.192 110.793C369.389 110.793 368.673 110.645 368.044 110.35C367.419 110.054 366.923 109.647 366.556 109.128C366.188 108.609 365.997 108.014 365.982 107.344H368.368C368.395 107.795 368.584 108.16 368.936 108.441C369.289 108.721 369.707 108.861 370.192 108.861C370.578 108.861 370.919 108.776 371.215 108.605C371.514 108.431 371.747 108.191 371.914 107.884C372.084 107.573 372.169 107.217 372.169 106.816C372.169 106.406 372.082 106.047 371.908 105.736C371.738 105.425 371.501 105.183 371.198 105.009C370.895 104.834 370.548 104.745 370.158 104.742C369.817 104.742 369.486 104.812 369.164 104.952C368.846 105.092 368.597 105.283 368.419 105.526L366.232 105.134L366.783 98.9974H373.897V101.009H368.811L368.51 103.924H368.578C368.783 103.636 369.092 103.397 369.505 103.208C369.917 103.018 370.38 102.924 370.891 102.924C371.592 102.924 372.217 103.088 372.766 103.418C373.315 103.747 373.749 104.2 374.067 104.776C374.385 105.348 374.542 106.007 374.539 106.753C374.542 107.537 374.361 108.234 373.993 108.844C373.63 109.45 373.12 109.927 372.465 110.276C371.813 110.62 371.056 110.793 370.192 110.793ZM376.277 110.634V101.906H378.584V103.446H378.686C378.868 102.935 379.171 102.531 379.596 102.236C380.02 101.941 380.527 101.793 381.118 101.793C381.717 101.793 382.226 101.942 382.647 102.242C383.067 102.537 383.347 102.939 383.488 103.446H383.578C383.756 102.946 384.078 102.547 384.544 102.247C385.014 101.944 385.569 101.793 386.209 101.793C387.024 101.793 387.685 102.052 388.192 102.571C388.703 103.086 388.959 103.817 388.959 104.764V110.634H386.544V105.242C386.544 104.757 386.416 104.393 386.158 104.151C385.9 103.908 385.578 103.787 385.192 103.787C384.753 103.787 384.41 103.927 384.164 104.208C383.917 104.484 383.794 104.85 383.794 105.304V110.634H381.448V105.191C381.448 104.763 381.325 104.422 381.078 104.168C380.836 103.914 380.516 103.787 380.118 103.787C379.849 103.787 379.607 103.855 379.391 103.992C379.179 104.124 379.01 104.312 378.885 104.554C378.76 104.793 378.698 105.073 378.698 105.395V110.634H376.277Z" fill="#EAF2E3"/>
<path d="M434.877 91.2968V94.852C439.303 96.1048 442.548 100.172 442.548 104.999C442.548 110.825 437.826 115.547 432 115.547C426.174 115.547 421.452 110.826 421.452 105C421.452 101.082 423.589 97.6656 426.76 95.848L429.2 98.288V91H421.912L424.26 93.348C420.491 95.856 418 100.133 418 105C418 112.732 424.268 119 432 119C439.732 119 446 112.732 446 105C446 98.2544 441.229 92.624 434.877 91.2968Z" fill="#D2D9F6"/>
<rect x="517" y="72" width="199" height="66" rx="33" fill="black" fill-opacity="0.702"/>
<rect x="517.5" y="72.5" width="198" height="65" rx="32.5" stroke="white" stroke-opacity="0.3"/>
<rect x="532.5" y="86.5" width="124" height="36.7907" rx="18.3953" stroke="white" stroke-opacity="0.3"/>
<path d="M566.019 99.3636V111H563.559V101.699H563.491L560.826 103.369V101.188L563.707 99.3636H566.019ZM573.347 111.256C572.37 111.252 571.529 111.011 570.825 110.534C570.124 110.057 569.584 109.366 569.205 108.46C568.83 107.555 568.645 106.466 568.648 105.193C568.648 103.924 568.836 102.843 569.211 101.949C569.59 101.055 570.129 100.375 570.83 99.9091C571.535 99.4394 572.374 99.2045 573.347 99.2045C574.321 99.2045 575.158 99.4394 575.859 99.9091C576.563 100.379 577.105 101.061 577.484 101.955C577.862 102.845 578.05 103.924 578.046 105.193C578.046 106.47 577.857 107.561 577.478 108.466C577.103 109.371 576.565 110.062 575.864 110.54C575.164 111.017 574.325 111.256 573.347 111.256ZM573.347 109.216C574.014 109.216 574.546 108.881 574.944 108.21C575.342 107.54 575.539 106.534 575.535 105.193C575.535 104.311 575.444 103.576 575.262 102.989C575.084 102.402 574.83 101.96 574.501 101.665C574.175 101.369 573.79 101.222 573.347 101.222C572.684 101.222 572.154 101.553 571.756 102.216C571.359 102.879 571.158 103.871 571.154 105.193C571.154 106.087 571.243 106.833 571.421 107.432C571.603 108.027 571.859 108.473 572.188 108.773C572.518 109.068 572.904 109.216 573.347 109.216ZM582.244 105.955V111H579.823V99.3636H582.175V103.812H582.278C582.475 103.297 582.793 102.894 583.232 102.602C583.672 102.307 584.223 102.159 584.886 102.159C585.492 102.159 586.02 102.292 586.471 102.557C586.925 102.818 587.278 103.195 587.528 103.688C587.781 104.176 587.906 104.761 587.903 105.443V111H585.482V105.875C585.486 105.337 585.35 104.919 585.073 104.619C584.8 104.32 584.418 104.17 583.925 104.17C583.596 104.17 583.304 104.241 583.05 104.381C582.8 104.521 582.603 104.725 582.459 104.994C582.319 105.259 582.247 105.58 582.244 105.955ZM593.312 108.955V107.017L598.17 99.3636H599.84V102.045H598.852L595.789 106.892V106.983H602.692V108.955H593.312ZM598.897 111V108.364L598.942 107.506V99.3636H601.249V111H598.897ZM608.582 111.159C607.779 111.159 607.063 111.011 606.434 110.716C605.809 110.42 605.313 110.013 604.945 109.494C604.578 108.975 604.387 108.381 604.371 107.71H606.758C606.784 108.161 606.974 108.527 607.326 108.807C607.678 109.087 608.097 109.227 608.582 109.227C608.968 109.227 609.309 109.142 609.604 108.972C609.904 108.797 610.137 108.557 610.303 108.25C610.474 107.939 610.559 107.583 610.559 107.182C610.559 106.773 610.472 106.413 610.298 106.102C610.127 105.792 609.89 105.549 609.587 105.375C609.284 105.201 608.938 105.112 608.548 105.108C608.207 105.108 607.875 105.178 607.553 105.318C607.235 105.458 606.987 105.65 606.809 105.892L604.621 105.5L605.173 99.3636H612.286V101.375H607.201L606.9 104.29H606.968C607.173 104.002 607.481 103.763 607.894 103.574C608.307 103.384 608.769 103.29 609.28 103.29C609.981 103.29 610.606 103.455 611.155 103.784C611.705 104.114 612.138 104.566 612.457 105.142C612.775 105.714 612.932 106.373 612.928 107.119C612.932 107.903 612.75 108.6 612.383 109.21C612.019 109.816 611.51 110.294 610.854 110.642C610.203 110.987 609.445 111.159 608.582 111.159ZM614.667 111V102.273H616.974V103.812H617.076C617.258 103.301 617.561 102.898 617.985 102.602C618.409 102.307 618.917 102.159 619.508 102.159C620.106 102.159 620.616 102.309 621.036 102.608C621.457 102.903 621.737 103.305 621.877 103.812H621.968C622.146 103.312 622.468 102.913 622.934 102.614C623.404 102.311 623.959 102.159 624.599 102.159C625.413 102.159 626.074 102.419 626.582 102.938C627.093 103.453 627.349 104.184 627.349 105.131V111H624.934V105.608C624.934 105.123 624.805 104.759 624.548 104.517C624.29 104.275 623.968 104.153 623.582 104.153C623.142 104.153 622.799 104.294 622.553 104.574C622.307 104.85 622.184 105.216 622.184 105.67V111H619.837V105.557C619.837 105.129 619.714 104.788 619.468 104.534C619.226 104.28 618.905 104.153 618.508 104.153C618.239 104.153 617.996 104.222 617.78 104.358C617.568 104.491 617.4 104.678 617.275 104.92C617.15 105.159 617.087 105.439 617.087 105.761V111H614.667Z" fill="#EAF2E3"/>
<path d="M684.877 91.2968V94.852C689.303 96.1048 692.548 100.172 692.548 104.999C692.548 110.825 687.826 115.547 682 115.547C676.174 115.547 671.452 110.826 671.452 105C671.452 101.082 673.589 97.6656 676.76 95.848L679.2 98.288V91H671.912L674.26 93.348C670.491 95.856 668 100.133 668 105C668 112.732 674.268 119 682 119C689.732 119 696 112.732 696 105C696 98.2544 691.229 92.624 684.877 91.2968Z" fill="#D2D9F6"/>
<rect x="17" y="72" width="199" height="66" rx="33" fill="black" fill-opacity="0.702"/>
<rect x="17.5" y="72.5" width="198" height="65" rx="32.5" stroke="white" stroke-opacity="0.3"/>
<rect x="32.5" y="86.5" width="124" height="36.7907" rx="18.3953" stroke="white" stroke-opacity="0.3"/>
<path d="M79.4715 105.261V107.182H74.1647V105.261H79.4715ZM86.9715 105.261V107.182H81.6647V105.261H86.9715ZM94.1519 111.148C93.7769 111.148 93.455 111.015 93.186 110.75C92.9209 110.481 92.7883 110.159 92.7883 109.784C92.7883 109.413 92.9209 109.095 93.186 108.83C93.455 108.564 93.7769 108.432 94.1519 108.432C94.5156 108.432 94.8338 108.564 95.1065 108.83C95.3792 109.095 95.5156 109.413 95.5156 109.784C95.5156 110.034 95.4512 110.263 95.3224 110.472C95.1974 110.676 95.0326 110.841 94.8281 110.966C94.6235 111.087 94.3981 111.148 94.1519 111.148ZM94.1519 105.034C93.7769 105.034 93.455 104.902 93.186 104.636C92.9209 104.371 92.7883 104.049 92.7883 103.67C92.7883 103.299 92.9209 102.983 93.186 102.722C93.455 102.456 93.7769 102.324 94.1519 102.324C94.5156 102.324 94.8338 102.456 95.1065 102.722C95.3792 102.983 95.5156 103.299 95.5156 103.67C95.5156 103.924 95.4512 104.155 95.3224 104.364C95.1974 104.568 95.0326 104.731 94.8281 104.852C94.6235 104.973 94.3981 105.034 94.1519 105.034ZM106.643 105.261V107.182H101.337V105.261H106.643ZM114.143 105.261V107.182H108.837V105.261H114.143Z" fill="#EAF2E3"/>
<path d="M184.877 91.2968V94.852C189.303 96.1048 192.548 100.172 192.548 104.999C192.548 110.825 187.826 115.547 182 115.547C176.174 115.547 171.452 110.826 171.452 105C171.452 101.082 173.589 97.6656 176.76 95.848L179.2 98.288V91H171.912L174.26 93.348C170.491 95.856 168 100.133 168 105C168 112.732 174.268 119 182 119C189.732 119 196 112.732 196 105C196 98.2544 191.229 92.624 184.877 91.2968Z" fill="#D2D9F6"/>
</svg>
